<mxfile host="Electron" modified="2023-11-17T02:09:54.217Z" agent="Mozilla/5.0 (Windows NT 10.0; Win64; x64) AppleWebKit/537.36 (KHTML, like Gecko) draw.io/22.1.2 Chrome/114.0.5735.289 Electron/25.9.4 Safari/537.36" etag="UWo0xnHpbH_U816sHNG2" version="22.1.2" type="device">
  <diagram name="PÃ¡gina-1" id="_RhjJrRZ-2iVSQCftsYG">
    <mxGraphModel dx="864" dy="508" grid="1" gridSize="10" guides="1" tooltips="1" connect="1" arrows="1" fold="1" page="1" pageScale="1" pageWidth="827" pageHeight="1169" math="1" shadow="0">
      <root>
        <mxCell id="0" />
        <mxCell id="1" parent="0" />
        <mxCell id="WRNIMYrn8UwbAYDCAJP3-8" style="edgeStyle=orthogonalEdgeStyle;rounded=0;orthogonalLoop=1;jettySize=auto;html=1;exitX=0.5;exitY=1;exitDx=0;exitDy=0;exitPerimeter=0;entryX=0.5;entryY=0;entryDx=0;entryDy=0;" parent="1" source="WRNIMYrn8UwbAYDCAJP3-1" target="WRNIMYrn8UwbAYDCAJP3-2" edge="1">
          <mxGeometry relative="1" as="geometry" />
        </mxCell>
        <mxCell id="WRNIMYrn8UwbAYDCAJP3-1" value="Init_LCD" style="strokeWidth=2;html=1;shape=mxgraph.flowchart.terminator;whiteSpace=wrap;" parent="1" vertex="1">
          <mxGeometry x="364" y="30" width="100" height="60" as="geometry" />
        </mxCell>
        <mxCell id="WRNIMYrn8UwbAYDCAJP3-6" style="edgeStyle=orthogonalEdgeStyle;rounded=0;orthogonalLoop=1;jettySize=auto;html=1;exitX=0.5;exitY=1;exitDx=0;exitDy=0;entryX=0.5;entryY=0;entryDx=0;entryDy=0;" parent="1" source="WRNIMYrn8UwbAYDCAJP3-2" target="WRNIMYrn8UwbAYDCAJP3-3" edge="1">
          <mxGeometry relative="1" as="geometry" />
        </mxCell>
        <mxCell id="WRNIMYrn8UwbAYDCAJP3-2" value="DDRK \(\leftarrow\) $FF&lt;br&gt;Timer20uS \(\leftarrow\) tTimer20uS&lt;br&gt;Timer1mS \(\leftarrow\) tTimer1ms" style="rounded=0;whiteSpace=wrap;html=1;" parent="1" vertex="1">
          <mxGeometry x="329" y="120" width="170" height="60" as="geometry" />
        </mxCell>
        <mxCell id="WRNIMYrn8UwbAYDCAJP3-7" style="edgeStyle=orthogonalEdgeStyle;rounded=0;orthogonalLoop=1;jettySize=auto;html=1;exitX=0.5;exitY=1;exitDx=0;exitDy=0;" parent="1" source="WRNIMYrn8UwbAYDCAJP3-3" target="WRNIMYrn8UwbAYDCAJP3-4" edge="1">
          <mxGeometry relative="1" as="geometry" />
        </mxCell>
        <mxCell id="WRNIMYrn8UwbAYDCAJP3-3" value="EstPres_SendLCD \(\leftarrow\) SendLCD_Est1" style="rounded=0;whiteSpace=wrap;html=1;" parent="1" vertex="1">
          <mxGeometry x="354" y="210" width="120" height="60" as="geometry" />
        </mxCell>
        <mxCell id="WRNIMYrn8UwbAYDCAJP3-10" style="edgeStyle=orthogonalEdgeStyle;rounded=0;orthogonalLoop=1;jettySize=auto;html=1;exitX=0.5;exitY=1;exitDx=0;exitDy=0;entryX=0.5;entryY=0;entryDx=0;entryDy=0;" parent="1" source="WRNIMYrn8UwbAYDCAJP3-4" target="WRNIMYrn8UwbAYDCAJP3-9" edge="1">
          <mxGeometry relative="1" as="geometry" />
        </mxCell>
        <mxCell id="WRNIMYrn8UwbAYDCAJP3-4" value="Punt_LCD \(\leftarrow\) IniDsp&lt;br&gt;K \(\leftarrow\) (Punt_LCD)&lt;br&gt;Banderas_2 \(\leftarrow\) $00" style="rounded=0;whiteSpace=wrap;html=1;" parent="1" vertex="1">
          <mxGeometry x="354" y="300" width="120" height="60" as="geometry" />
        </mxCell>
        <mxCell id="WRNIMYrn8UwbAYDCAJP3-14" style="edgeStyle=orthogonalEdgeStyle;rounded=0;orthogonalLoop=1;jettySize=auto;html=1;exitX=0.5;exitY=1;exitDx=0;exitDy=0;entryX=0.5;entryY=0;entryDx=0;entryDy=0;" parent="1" source="WRNIMYrn8UwbAYDCAJP3-9" target="WRNIMYrn8UwbAYDCAJP3-11" edge="1">
          <mxGeometry relative="1" as="geometry" />
        </mxCell>
        <mxCell id="WRNIMYrn8UwbAYDCAJP3-9" value="I \(\leftarrow\) 0" style="rounded=0;whiteSpace=wrap;html=1;" parent="1" vertex="1">
          <mxGeometry x="354" y="390" width="120" height="30" as="geometry" />
        </mxCell>
        <mxCell id="WRNIMYrn8UwbAYDCAJP3-13" style="edgeStyle=orthogonalEdgeStyle;rounded=0;orthogonalLoop=1;jettySize=auto;html=1;exitX=0.5;exitY=1;exitDx=0;exitDy=0;entryX=0.5;entryY=0;entryDx=0;entryDy=0;" parent="1" source="WRNIMYrn8UwbAYDCAJP3-11" target="WRNIMYrn8UwbAYDCAJP3-12" edge="1">
          <mxGeometry relative="1" as="geometry" />
        </mxCell>
        <mxCell id="WRNIMYrn8UwbAYDCAJP3-11" value="" style="ellipse;whiteSpace=wrap;html=1;aspect=fixed;" parent="1" vertex="1">
          <mxGeometry x="399" y="450" width="30" height="30" as="geometry" />
        </mxCell>
        <mxCell id="WRNIMYrn8UwbAYDCAJP3-16" style="edgeStyle=orthogonalEdgeStyle;rounded=0;orthogonalLoop=1;jettySize=auto;html=1;exitX=0.5;exitY=1;exitDx=0;exitDy=0;entryX=0.5;entryY=0;entryDx=0;entryDy=0;" parent="1" source="WRNIMYrn8UwbAYDCAJP3-12" target="WRNIMYrn8UwbAYDCAJP3-15" edge="1">
          <mxGeometry relative="1" as="geometry" />
        </mxCell>
        <mxCell id="WRNIMYrn8UwbAYDCAJP3-12" value="K \(\leftarrow\) (Punt_LCD)&lt;br&gt;CharLCD&amp;nbsp; \(\leftarrow\) ((K))&lt;br&gt;K \(\leftarrow\) (K) +1&lt;br&gt;Punt_LCD \(\leftarrow\) (K)" style="rounded=0;whiteSpace=wrap;html=1;" parent="1" vertex="1">
          <mxGeometry x="354" y="514.5" width="120" height="70" as="geometry" />
        </mxCell>
        <mxCell id="WRNIMYrn8UwbAYDCAJP3-29" style="edgeStyle=orthogonalEdgeStyle;rounded=0;orthogonalLoop=1;jettySize=auto;html=1;exitX=0;exitY=0.5;exitDx=0;exitDy=0;entryX=0.5;entryY=0;entryDx=0;entryDy=0;" parent="1" source="WRNIMYrn8UwbAYDCAJP3-15" target="WRNIMYrn8UwbAYDCAJP3-20" edge="1">
          <mxGeometry relative="1" as="geometry" />
        </mxCell>
        <mxCell id="WRNIMYrn8UwbAYDCAJP3-30" value="NO" style="edgeLabel;html=1;align=center;verticalAlign=middle;resizable=0;points=[];" parent="WRNIMYrn8UwbAYDCAJP3-29" vertex="1" connectable="0">
          <mxGeometry x="-0.2362" relative="1" as="geometry">
            <mxPoint as="offset" />
          </mxGeometry>
        </mxCell>
        <mxCell id="VPRIvhTZw6H2pGBqbkPE-1" style="edgeStyle=orthogonalEdgeStyle;rounded=0;orthogonalLoop=1;jettySize=auto;html=1;exitX=1;exitY=0.5;exitDx=0;exitDy=0;" edge="1" parent="1" source="WRNIMYrn8UwbAYDCAJP3-15" target="WRNIMYrn8UwbAYDCAJP3-33">
          <mxGeometry relative="1" as="geometry" />
        </mxCell>
        <mxCell id="WRNIMYrn8UwbAYDCAJP3-15" value="\( \overline{(CharLCD)}\) \(\cdot\) $FF = 0" style="shape=hexagon;perimeter=hexagonPerimeter2;whiteSpace=wrap;html=1;fixedSize=1;" parent="1" vertex="1">
          <mxGeometry x="329" y="620" width="166" height="50" as="geometry" />
        </mxCell>
        <mxCell id="WRNIMYrn8UwbAYDCAJP3-23" style="edgeStyle=orthogonalEdgeStyle;rounded=0;orthogonalLoop=1;jettySize=auto;html=1;exitX=0.5;exitY=1;exitDx=0;exitDy=0;entryX=0.5;entryY=0;entryDx=0;entryDy=0;" parent="1" source="WRNIMYrn8UwbAYDCAJP3-20" target="WRNIMYrn8UwbAYDCAJP3-22" edge="1">
          <mxGeometry relative="1" as="geometry">
            <mxPoint x="215" y="780" as="targetPoint" />
          </mxGeometry>
        </mxCell>
        <mxCell id="WRNIMYrn8UwbAYDCAJP3-20" value="" style="ellipse;whiteSpace=wrap;html=1;aspect=fixed;" parent="1" vertex="1">
          <mxGeometry x="200" y="730" width="30" height="30" as="geometry" />
        </mxCell>
        <mxCell id="WRNIMYrn8UwbAYDCAJP3-26" style="edgeStyle=orthogonalEdgeStyle;rounded=0;orthogonalLoop=1;jettySize=auto;html=1;exitX=0.5;exitY=1;exitDx=0;exitDy=0;entryX=0.5;entryY=0;entryDx=0;entryDy=0;" parent="1" source="WRNIMYrn8UwbAYDCAJP3-22" target="WRNIMYrn8UwbAYDCAJP3-25" edge="1">
          <mxGeometry relative="1" as="geometry" />
        </mxCell>
        <mxCell id="WRNIMYrn8UwbAYDCAJP3-22" value="Tarea_SendLCD" style="shape=process;whiteSpace=wrap;html=1;backgroundOutline=1;" parent="1" vertex="1">
          <mxGeometry x="155" y="790" width="120" height="40" as="geometry" />
        </mxCell>
        <mxCell id="WRNIMYrn8UwbAYDCAJP3-27" style="edgeStyle=orthogonalEdgeStyle;rounded=0;orthogonalLoop=1;jettySize=auto;html=1;exitX=1;exitY=0.5;exitDx=0;exitDy=0;entryX=1;entryY=0.5;entryDx=0;entryDy=0;" parent="1" source="WRNIMYrn8UwbAYDCAJP3-25" target="WRNIMYrn8UwbAYDCAJP3-20" edge="1">
          <mxGeometry relative="1" as="geometry" />
        </mxCell>
        <mxCell id="WRNIMYrn8UwbAYDCAJP3-31" style="edgeStyle=orthogonalEdgeStyle;rounded=0;orthogonalLoop=1;jettySize=auto;html=1;exitX=0.5;exitY=1;exitDx=0;exitDy=0;entryX=0.5;entryY=0;entryDx=0;entryDy=0;" parent="1" source="WRNIMYrn8UwbAYDCAJP3-25" target="WRNIMYrn8UwbAYDCAJP3-28" edge="1">
          <mxGeometry relative="1" as="geometry" />
        </mxCell>
        <mxCell id="WRNIMYrn8UwbAYDCAJP3-25" value="FinSendLCD = 0" style="shape=hexagon;perimeter=hexagonPerimeter2;whiteSpace=wrap;html=1;fixedSize=1;" parent="1" vertex="1">
          <mxGeometry x="146" y="870" width="138" height="40" as="geometry" />
        </mxCell>
        <mxCell id="WRNIMYrn8UwbAYDCAJP3-32" style="edgeStyle=orthogonalEdgeStyle;rounded=0;orthogonalLoop=1;jettySize=auto;html=1;exitX=0;exitY=0.5;exitDx=0;exitDy=0;entryX=0;entryY=0.5;entryDx=0;entryDy=0;" parent="1" source="WRNIMYrn8UwbAYDCAJP3-28" target="WRNIMYrn8UwbAYDCAJP3-11" edge="1">
          <mxGeometry relative="1" as="geometry">
            <Array as="points">
              <mxPoint x="80" y="960" />
              <mxPoint x="80" y="465" />
            </Array>
          </mxGeometry>
        </mxCell>
        <mxCell id="WRNIMYrn8UwbAYDCAJP3-28" value="FinSendLCD \(\leftarrow\) 0" style="rounded=0;whiteSpace=wrap;html=1;" parent="1" vertex="1">
          <mxGeometry x="155" y="940" width="120" height="40" as="geometry" />
        </mxCell>
        <mxCell id="WRNIMYrn8UwbAYDCAJP3-44" style="edgeStyle=orthogonalEdgeStyle;rounded=0;orthogonalLoop=1;jettySize=auto;html=1;exitX=0.5;exitY=1;exitDx=0;exitDy=0;entryX=0.5;entryY=0;entryDx=0;entryDy=0;" parent="1" source="WRNIMYrn8UwbAYDCAJP3-33" target="WRNIMYrn8UwbAYDCAJP3-43" edge="1">
          <mxGeometry relative="1" as="geometry" />
        </mxCell>
        <mxCell id="WRNIMYrn8UwbAYDCAJP3-33" value="CharLCD \(\leftarrow\) Clear_LCD" style="rounded=0;whiteSpace=wrap;html=1;" parent="1" vertex="1">
          <mxGeometry x="590" y="622.5" width="160" height="45" as="geometry" />
        </mxCell>
        <mxCell id="WRNIMYrn8UwbAYDCAJP3-35" style="edgeStyle=orthogonalEdgeStyle;rounded=0;orthogonalLoop=1;jettySize=auto;html=1;exitX=0.5;exitY=1;exitDx=0;exitDy=0;entryX=0.5;entryY=0;entryDx=0;entryDy=0;" parent="1" source="WRNIMYrn8UwbAYDCAJP3-36" target="WRNIMYrn8UwbAYDCAJP3-39" edge="1">
          <mxGeometry relative="1" as="geometry" />
        </mxCell>
        <mxCell id="WRNIMYrn8UwbAYDCAJP3-36" value="Tarea_SendLCD" style="shape=process;whiteSpace=wrap;html=1;backgroundOutline=1;" parent="1" vertex="1">
          <mxGeometry x="610" y="740" width="120" height="40" as="geometry" />
        </mxCell>
        <mxCell id="WRNIMYrn8UwbAYDCAJP3-38" style="edgeStyle=orthogonalEdgeStyle;rounded=0;orthogonalLoop=1;jettySize=auto;html=1;exitX=0.5;exitY=1;exitDx=0;exitDy=0;entryX=0.5;entryY=0;entryDx=0;entryDy=0;" parent="1" source="WRNIMYrn8UwbAYDCAJP3-39" target="WRNIMYrn8UwbAYDCAJP3-40" edge="1">
          <mxGeometry relative="1" as="geometry" />
        </mxCell>
        <mxCell id="WRNIMYrn8UwbAYDCAJP3-46" style="edgeStyle=orthogonalEdgeStyle;rounded=0;orthogonalLoop=1;jettySize=auto;html=1;exitX=1;exitY=0.5;exitDx=0;exitDy=0;entryX=1;entryY=0.5;entryDx=0;entryDy=0;" parent="1" source="WRNIMYrn8UwbAYDCAJP3-39" target="WRNIMYrn8UwbAYDCAJP3-43" edge="1">
          <mxGeometry relative="1" as="geometry">
            <Array as="points">
              <mxPoint x="770" y="840" />
              <mxPoint x="770" y="705" />
            </Array>
          </mxGeometry>
        </mxCell>
        <mxCell id="WRNIMYrn8UwbAYDCAJP3-39" value="FinSendLCD = 0" style="shape=hexagon;perimeter=hexagonPerimeter2;whiteSpace=wrap;html=1;fixedSize=1;" parent="1" vertex="1">
          <mxGeometry x="601" y="820" width="138" height="40" as="geometry" />
        </mxCell>
        <mxCell id="WRNIMYrn8UwbAYDCAJP3-53" style="edgeStyle=orthogonalEdgeStyle;rounded=0;orthogonalLoop=1;jettySize=auto;html=1;exitX=0;exitY=0.5;exitDx=0;exitDy=0;entryX=0.5;entryY=0;entryDx=0;entryDy=0;" parent="1" source="WRNIMYrn8UwbAYDCAJP3-40" target="WRNIMYrn8UwbAYDCAJP3-48" edge="1">
          <mxGeometry relative="1" as="geometry" />
        </mxCell>
        <mxCell id="WRNIMYrn8UwbAYDCAJP3-40" value="FinSendLCD \(\leftarrow\) 0&lt;br&gt;Timer2mS \(\leftarrow\) tTimer2mS" style="rounded=0;whiteSpace=wrap;html=1;" parent="1" vertex="1">
          <mxGeometry x="585" y="890" width="170" height="50" as="geometry" />
        </mxCell>
        <mxCell id="WRNIMYrn8UwbAYDCAJP3-45" style="edgeStyle=orthogonalEdgeStyle;rounded=0;orthogonalLoop=1;jettySize=auto;html=1;exitX=0.5;exitY=1;exitDx=0;exitDy=0;entryX=0.5;entryY=0;entryDx=0;entryDy=0;" parent="1" source="WRNIMYrn8UwbAYDCAJP3-43" target="WRNIMYrn8UwbAYDCAJP3-36" edge="1">
          <mxGeometry relative="1" as="geometry" />
        </mxCell>
        <mxCell id="WRNIMYrn8UwbAYDCAJP3-43" value="" style="ellipse;whiteSpace=wrap;html=1;aspect=fixed;" parent="1" vertex="1">
          <mxGeometry x="655" y="690" width="30" height="30" as="geometry" />
        </mxCell>
        <mxCell id="WRNIMYrn8UwbAYDCAJP3-52" style="edgeStyle=orthogonalEdgeStyle;rounded=0;orthogonalLoop=1;jettySize=auto;html=1;exitX=0.5;exitY=1;exitDx=0;exitDy=0;entryX=0.5;entryY=0;entryDx=0;entryDy=0;" parent="1" source="WRNIMYrn8UwbAYDCAJP3-48" target="WRNIMYrn8UwbAYDCAJP3-49" edge="1">
          <mxGeometry relative="1" as="geometry" />
        </mxCell>
        <mxCell id="WRNIMYrn8UwbAYDCAJP3-48" value="" style="ellipse;whiteSpace=wrap;html=1;aspect=fixed;" parent="1" vertex="1">
          <mxGeometry x="395" y="910" width="30" height="30" as="geometry" />
        </mxCell>
        <mxCell id="WRNIMYrn8UwbAYDCAJP3-50" style="edgeStyle=orthogonalEdgeStyle;rounded=0;orthogonalLoop=1;jettySize=auto;html=1;exitX=1;exitY=0.5;exitDx=0;exitDy=0;entryX=1;entryY=0.5;entryDx=0;entryDy=0;" parent="1" source="WRNIMYrn8UwbAYDCAJP3-49" target="WRNIMYrn8UwbAYDCAJP3-48" edge="1">
          <mxGeometry relative="1" as="geometry" />
        </mxCell>
        <mxCell id="WRNIMYrn8UwbAYDCAJP3-51" value="NO" style="edgeLabel;html=1;align=center;verticalAlign=middle;resizable=0;points=[];" parent="WRNIMYrn8UwbAYDCAJP3-50" vertex="1" connectable="0">
          <mxGeometry x="-0.2276" y="-2" relative="1" as="geometry">
            <mxPoint as="offset" />
          </mxGeometry>
        </mxCell>
        <mxCell id="WRNIMYrn8UwbAYDCAJP3-54" style="edgeStyle=orthogonalEdgeStyle;rounded=0;orthogonalLoop=1;jettySize=auto;html=1;exitX=0.5;exitY=1;exitDx=0;exitDy=0;" parent="1" source="WRNIMYrn8UwbAYDCAJP3-49" target="WRNIMYrn8UwbAYDCAJP3-55" edge="1">
          <mxGeometry relative="1" as="geometry">
            <mxPoint x="410" y="1070" as="targetPoint" />
          </mxGeometry>
        </mxCell>
        <mxCell id="WRNIMYrn8UwbAYDCAJP3-49" value="Timer2mS = 0" style="shape=hexagon;perimeter=hexagonPerimeter2;whiteSpace=wrap;html=1;fixedSize=1;" parent="1" vertex="1">
          <mxGeometry x="350" y="960" width="120" height="50" as="geometry" />
        </mxCell>
        <mxCell id="WRNIMYrn8UwbAYDCAJP3-55" value="Continue to &lt;br&gt;Main" style="strokeWidth=2;html=1;shape=mxgraph.flowchart.terminator;whiteSpace=wrap;" parent="1" vertex="1">
          <mxGeometry x="360" y="1050" width="100" height="60" as="geometry" />
        </mxCell>
      </root>
    </mxGraphModel>
  </diagram>
</mxfile>
